<?xml version="1.0" standalone="no"?>
<!DOCTYPE svg PUBLIC "-//W3C//DTD SVG 20010904//EN"
 "http://www.w3.org/TR/2001/REC-SVG-20010904/DTD/svg10.dtd">
<svg version="1.0" xmlns="http://www.w3.org/2000/svg"
 width="700.000000pt" height="700.000000pt" viewBox="0 0 700.000000 700.000000"
 preserveAspectRatio="xMidYMid meet">
<metadata>
Created by potrace 1.14, written by Peter Selinger 2001-2017
</metadata>
<g transform="translate(0.000000,700.000000) scale(0.100000,-0.100000)"
fill="#000000" stroke="none">
<path d="M3278 6996 c-1 -2 -41 -6 -88 -10 -47 -4 -101 -9 -120 -12 -139 -19
-252 -40 -360 -66 -69 -16 -133 -31 -143 -33 -10 -2 -69 -21 -130 -41 -924
-300 -1661 -939 -2085 -1807 -34 -69 -62 -129 -62 -131 0 -3 -11 -29 -24 -58
-52 -116 -142 -389 -162 -491 -2 -10 -6 -27 -9 -37 -3 -10 -8 -29 -10 -42 -3
-13 -11 -57 -20 -98 -22 -115 -30 -160 -41 -255 -26 -230 -26 -666 1 -826 2
-13 6 -46 9 -74 9 -78 23 -156 51 -285 18 -83 62 -239 98 -345 216 -634 574
-1151 1107 -1599 157 -131 395 -287 610 -398 338 -175 739 -303 1109 -354 25
-3 57 -8 71 -10 163 -25 682 -25 842 1 13 2 46 7 73 10 71 10 86 13 120 19 17
3 44 8 60 11 307 53 744 214 1039 384 49 28 91 51 93 51 2 0 9 5 16 10 7 6 67
47 134 91 129 86 301 220 404 316 87 81 240 239 284 293 21 25 40 47 44 50 12
9 137 174 193 255 124 178 268 444 353 650 68 164 151 426 181 570 16 75 54
300 60 350 4 33 9 76 11 95 8 70 10 517 3 595 -15 159 -21 210 -25 225 -2 8
-7 35 -10 60 -8 59 -40 212 -70 330 -93 369 -283 780 -510 1105 -59 85 -212
281 -253 324 -172 181 -268 274 -367 356 -33 28 -62 53 -65 56 -8 9 -190 142
-239 175 -341 225 -708 390 -1084 485 -117 29 -240 55 -307 64 -19 3 -46 7
-60 10 -13 2 -54 7 -90 11 -36 3 -76 8 -90 11 -27 5 -536 14 -542 9z m557
-460 c22 -3 54 -8 70 -11 17 -3 49 -8 72 -11 36 -5 218 -42 288 -59 162 -39
401 -128 580 -217 317 -158 570 -340 820 -592 492 -495 788 -1116 872 -1826
10 -88 10 -547 0 -640 -29 -260 -101 -550 -197 -795 -155 -395 -382 -739 -689
-1046 -501 -500 -1161 -812 -1856 -877 -106 -9 -510 -9 -605 1 -99 10 -291 42
-367 61 -13 3 -31 8 -40 10 -61 14 -85 20 -143 38 -191 59 -245 80 -435 166
-536 245 -1039 705 -1342 1227 -191 329 -327 714 -378 1070 -4 22 -8 47 -10
55 -12 48 -20 204 -20 410 0 270 7 358 46 560 26 134 24 124 44 200 34 134 95
318 136 407 10 24 19 45 19 49 0 6 109 224 139 277 11 20 31 54 42 75 38 67
170 255 248 352 84 104 317 344 396 406 28 21 52 42 55 45 10 11 167 127 225
166 101 67 208 129 311 181 89 45 129 64 229 107 17 7 71 28 120 45 50 17 97
34 105 37 8 3 29 9 45 13 17 5 71 20 120 33 50 14 104 28 120 31 153 28 283
47 350 52 44 4 82 8 85 11 6 5 495 -4 545 -11z"/>
<path d="M3418 5805 c-2 -1 -35 -5 -74 -8 -98 -9 -272 -43 -368 -74 -479 -151
-857 -559 -941 -1016 -8 -45 -16 -102 -17 -127 l-3 -45 55 -7 c30 -4 80 -10
110 -13 30 -3 66 -8 80 -10 14 -2 48 -7 75 -10 28 -3 64 -8 82 -10 18 -3 56
-7 85 -10 29 -3 63 -7 75 -9 12 -3 50 -7 85 -11 35 -3 75 -8 90 -11 23 -3 27
0 33 28 13 61 67 212 97 273 42 83 91 150 161 218 145 141 324 205 566 205
240 -1 404 -61 540 -196 116 -116 165 -226 170 -378 3 -86 -19 -177 -62 -259
-42 -79 -145 -181 -409 -401 -506 -423 -620 -594 -673 -1014 -4 -32 -7 -222
-6 -325 l1 -60 377 0 377 0 3 75 c7 223 23 331 64 411 21 42 89 130 134 173
60 58 151 141 199 181 307 257 531 480 636 635 75 111 139 263 156 370 3 19 8
38 10 42 7 11 5 236 -2 288 -31 239 -147 456 -348 655 -144 143 -256 218 -471
316 -80 36 -293 90 -412 104 -26 3 -64 8 -83 12 -34 5 -386 13 -392 8z"/>
<path d="M3203 2182 l-33 -3 0 -384 0 -384 385 0 385 0 0 385 c0 359 -1 384
-17 384 -100 3 -696 4 -720 2z"/>
</g>
</svg>
