<?xml version="1.0" standalone="no"?>
<svg id="wave" xmlns="http://www.w3.org/2000/svg" viewBox="0 0 1440 320">
    <path fill="#916BBF" transform="translate(0, -4)" d="M0,128L48,122.7C96,117,192,107,288,128C384,149,480,203,576,208C672,213,768,171,864,176C960,181,1056,235,1152,240C1248,245,1344,203,1392,181.3L1440,160L1440,320L1392,320C1344,320,1248,320,1152,320C1056,320,960,320,864,320C768,320,672,320,576,320C480,320,384,320,288,320C192,320,96,320,48,320L0,320Z"/>
    <path fill="#3D2C8D" d="M0,128L48,122.7C96,117,192,107,288,128C384,149,480,203,576,208C672,213,768,171,864,176C960,181,1056,235,1152,240C1248,245,1344,203,1392,181.3L1440,160L1440,320L1392,320C1344,320,1248,320,1152,320C1056,320,960,320,864,320C768,320,672,320,576,320C480,320,384,320,288,320C192,320,96,320,48,320L0,320Z"/>
</svg>
